<svg xmlns="http://www.w3.org/2000/svg" width="88" height="88" viewBox="0 0 88 88" class="dumped-mascot" data-anim="squish">
  <defs>
    <radialGradient id="gdm" cx="40%" cy="35%" r="60%">
      <stop offset="0%" stop-color="#A8E6CF"/><stop offset="100%" stop-color="#7EE8A2"/>
    </radialGradient>
    <radialGradient id="gdmbl" cx="50%" cy="60%" r="50%">
      <stop offset="0%" stop-color="#C8F4DC"/><stop offset="100%" stop-color="#A8E6CF"/>
    </radialGradient>
  </defs>
  <ellipse cx="44" cy="52" rx="33" ry="10" fill="rgba(0,0,0,0.08)"/>
  <ellipse cx="44" cy="46" rx="33" ry="30" fill="url(#gdm)"/>
  <ellipse cx="44" cy="50" rx="20" ry="13" fill="url(#gdmbl)" opacity="0.7"/>
  <circle cx="35" cy="38" r="4.5" fill="#0D0F14"/>
  <circle cx="53" cy="38" r="4.5" fill="#0D0F14"/>
  <circle cx="36.5" cy="36.5" r="1.6" fill="white" opacity="0.9"/>
  <circle cx="54.5" cy="36.5" r="1.6" fill="white" opacity="0.9"/>
  <path d="M37 48 Q44 55 51 48" stroke="#0D0F14" stroke-width="2.1" fill="none" stroke-linecap="round"/>
  <ellipse cx="30" cy="43" rx="4" ry="2.5" fill="#F4A8C0" opacity="0.6"/>
  <ellipse cx="58" cy="43" rx="4" ry="2.5" fill="#F4A8C0" opacity="0.6"/>
  <ellipse cx="23" cy="50" rx="8" ry="6" fill="url(#gdm)" stroke="#7EE8A2" stroke-width="0.5"/>
  <ellipse cx="65" cy="50" rx="8" ry="6" fill="url(#gdm)" stroke="#7EE8A2" stroke-width="0.5"/>
  <ellipse cx="35" cy="72" rx="6" ry="4" fill="url(#gdm)"/>
  <ellipse cx="53" cy="72" rx="6" ry="4" fill="url(#gdm)"/>
  <ellipse cx="31" cy="28" rx="5" ry="3.5" fill="url(#gdm)" transform="rotate(-25 31 28)"/>
  <ellipse cx="57" cy="28" rx="5" ry="3.5" fill="url(#gdm)" transform="rotate(25 57 28)"/>
  <ellipse cx="44" cy="20" rx="4" ry="2.5" fill="url(#gdm)"/>
</svg>
