<svg xmlns="http://www.w3.org/2000/svg" width="88" height="88" viewBox="0 0 88 88" class="dumped-mascot" data-anim="wiggle">
  <defs>
    <radialGradient id="gfc" cx="38%" cy="30%" r="65%">
      <stop offset="0%" stop-color="#88C8F0"/><stop offset="100%" stop-color="#4A9FD4"/>
    </radialGradient>
    <radialGradient id="gfcbl" cx="50%" cy="62%" r="48%">
      <stop offset="0%" stop-color="#BEE2F7"/><stop offset="100%" stop-color="#88C8F0"/>
    </radialGradient>
  </defs>
  <ellipse cx="44" cy="53" rx="32" ry="9" fill="rgba(0,0,0,0.08)"/>
  <ellipse cx="44" cy="46" rx="31" ry="30" fill="url(#gfc)"/>
  <ellipse cx="44" cy="51" rx="17" ry="11" fill="url(#gfcbl)" opacity="0.7"/>
  <line x1="37" y1="33" x2="37" y2="31" stroke="#0D0F14" stroke-width="1.5" stroke-linecap="round"/>
  <line x1="51" y1="33" x2="51" y2="31" stroke="#0D0F14" stroke-width="1.5" stroke-linecap="round"/>
  <rect x="31" y="33" width="11" height="8" rx="4" fill="white" opacity="0.95"/>
  <rect x="46" y="33" width="11" height="8" rx="4" fill="white" opacity="0.95"/>
  <circle cx="36.5" cy="37" r="2.8" fill="#0D0F14"/>
  <circle cx="51.5" cy="37" r="2.8" fill="#0D0F14"/>
  <circle cx="37.5" cy="35.8" r="1" fill="white" opacity="0.9"/>
  <circle cx="52.5" cy="35.8" r="1" fill="white" opacity="0.9"/>
  <path d="M37 49 Q44 47 51 49" stroke="#0D0F14" stroke-width="1.8" fill="none" stroke-linecap="round"/>
  <ellipse cx="29" cy="44" rx="3.5" ry="2" fill="#F4A8C0" opacity="0.5"/>
  <ellipse cx="59" cy="44" rx="3.5" ry="2" fill="#F4A8C0" opacity="0.5"/>
  <ellipse cx="21" cy="47" rx="7" ry="5.5" fill="url(#gfc)"/>
  <ellipse cx="67" cy="47" rx="7" ry="5.5" fill="url(#gfc)"/>
  <ellipse cx="35" cy="72" rx="5" ry="3.5" fill="url(#gfc)"/>
  <ellipse cx="53" cy="72" rx="5" ry="3.5" fill="url(#gfc)"/>
</svg>
