<svg xmlns="http://www.w3.org/2000/svg" width="88" height="88" viewBox="0 0 88 88" class="dumped-mascot" data-anim="spin-pop">
  <defs>
    <radialGradient id="ggl" cx="38%" cy="30%" r="65%">
      <stop offset="0%" stop-color="#F4C0D0"/><stop offset="100%" stop-color="#E8829A"/>
    </radialGradient>
    <radialGradient id="gglbl" cx="50%" cy="65%" r="48%">
      <stop offset="0%" stop-color="#F9DDE4"/><stop offset="100%" stop-color="#F4C0D0"/>
    </radialGradient>
  </defs>
  <ellipse cx="44" cy="53" rx="33" ry="9" fill="rgba(0,0,0,0.08)"/>
  <ellipse cx="44" cy="46" rx="32" ry="30" fill="url(#ggl)"/>
  <ellipse cx="44" cy="52" rx="19" ry="12" fill="url(#gglbl)" opacity="0.65"/>
  <path d="M30 28 Q37 18 44 24 Q51 18 58 28 Q51 22 44 26 Q37 22 30 28Z" fill="#F4C0D0" stroke="#E87898" stroke-width="1.2" stroke-linecap="round" stroke-linejoin="round"/>
  <circle cx="35" cy="39" r="4.2" fill="#0D0F14"/>
  <circle cx="53" cy="39" r="4.2" fill="#0D0F14"/>
  <circle cx="36.5" cy="37.5" r="1.5" fill="white" opacity="0.9"/>
  <circle cx="54.5" cy="37.5" r="1.5" fill="white" opacity="0.9"/>
  <path d="M35 50 Q44 58 53 50" stroke="#0D0F14" stroke-width="2.2" fill="none" stroke-linecap="round"/>
  <ellipse cx="29" cy="45" rx="4" ry="2.5" fill="#F4A8C0" opacity="0.7"/>
  <ellipse cx="59" cy="45" rx="4" ry="2.5" fill="#F4A8C0" opacity="0.7"/>
  <ellipse cx="21" cy="49" rx="7.5" ry="5.5" fill="url(#ggl)"/>
  <ellipse cx="67" cy="49" rx="7.5" ry="5.5" fill="url(#ggl)"/>
  <ellipse cx="35" cy="73" rx="5.5" ry="3.5" fill="url(#ggl)"/>
  <ellipse cx="53" cy="73" rx="5.5" ry="3.5" fill="url(#ggl)"/>
</svg>
