<svg xmlns="http://www.w3.org/2000/svg" width="88" height="88" viewBox="0 0 88 88" class="dumped-mascot" data-anim="bounce">
  <defs>
    <radialGradient id="gmj" cx="38%" cy="30%" r="65%">
      <stop offset="0%" stop-color="#F9C8A0"/><stop offset="100%" stop-color="#F0A868"/>
    </radialGradient>
    <radialGradient id="gmjbl" cx="50%" cy="65%" r="48%">
      <stop offset="0%" stop-color="#FCDFC0"/><stop offset="100%" stop-color="#F9C8A0"/>
    </radialGradient>
  </defs>
  <ellipse cx="44" cy="53" rx="33" ry="9" fill="rgba(0,0,0,0.08)"/>
  <ellipse cx="44" cy="46" rx="32" ry="30" fill="url(#gmj)"/>
  <ellipse cx="44" cy="52" rx="19" ry="12" fill="url(#gmjbl)" opacity="0.65"/>
  <path d="M32 35 Q35 32 39 34" stroke="#0D0F14" stroke-width="1.5" fill="none" stroke-linecap="round"/>
  <path d="M49 34 Q53 32 56 35" stroke="#0D0F14" stroke-width="1.5" fill="none" stroke-linecap="round"/>
  <path d="M32 40 Q36 38 39 40" stroke="#0D0F14" stroke-width="1.5" fill="none" stroke-linecap="round"/>
  <path d="M49 40 Q52 38 56 40" stroke="#0D0F14" stroke-width="1.5" fill="none" stroke-linecap="round"/>
  <path d="M34 50 Q44 59 54 50" stroke="#0D0F14" stroke-width="2.2" fill="none" stroke-linecap="round"/>
  <circle cx="37" cy="53.5" r="2" fill="#F4A8C0" opacity="0.5"/>
  <circle cx="51" cy="53.5" r="2" fill="#F4A8C0" opacity="0.5"/>
  <ellipse cx="29" cy="43" rx="3.5" ry="2.5" fill="#F4A8C0" opacity="0.6"/>
  <ellipse cx="59" cy="43" rx="3.5" ry="2.5" fill="#F4A8C0" opacity="0.6"/>
  <ellipse cx="21" cy="48" rx="7.5" ry="5.5" fill="url(#gmj)"/>
  <ellipse cx="67" cy="48" rx="7.5" ry="5.5" fill="url(#gmj)"/>
  <ellipse cx="35" cy="72" rx="5.5" ry="3.5" fill="url(#gmj)"/>
  <ellipse cx="53" cy="72" rx="5.5" ry="3.5" fill="url(#gmj)"/>
  <path d="M41 18 Q44 13 47 18" stroke="#F0C674" stroke-width="2" fill="none" stroke-linecap="round"/>
</svg>
