<svg xmlns="http://www.w3.org/2000/svg" width="56" height="56" viewBox="0 0 56 56" class="dumped-mood" data-mood="elated" data-anim="pop">
  <defs>
    <radialGradient id="ee" cx="38%" cy="32%" r="60%">
      <stop offset="0%" stop-color="#F0C0FC"/><stop offset="100%" stop-color="#C060D8"/>
    </radialGradient>
  </defs>
  <circle cx="28" cy="28" r="24" fill="url(#ee)"/>
  <ellipse cx="20" cy="18" rx="5" ry="3" fill="white" opacity="0.25" transform="rotate(-30 20 18)"/>
  <path d="M16 18 Q20 14 25 17" stroke="#6B0094" stroke-width="1.8" fill="none" stroke-linecap="round"/>
  <path d="M31 17 Q36 14 40 18" stroke="#6B0094" stroke-width="1.8" fill="none" stroke-linecap="round"/>
  <circle cx="21" cy="27" r="5.2" fill="#0D0F14"/>
  <circle cx="35" cy="27" r="5.2" fill="#0D0F14"/>
  <circle cx="23" cy="25" r="2.2" fill="white" opacity="0.95"/>
  <circle cx="37" cy="25" r="2.2" fill="white" opacity="0.95"/>
  <circle cx="20" cy="29" r="0.9" fill="white" opacity="0.7"/>
  <circle cx="34" cy="29" r="0.9" fill="white" opacity="0.7"/>
  <path d="M14 37 Q28 52 42 37" stroke="#0D0F14" stroke-width="2.4" fill="none" stroke-linecap="round"/>
  <ellipse cx="13" cy="34" rx="4" ry="2.8" fill="#F4A8C0" opacity="0.72"/>
  <ellipse cx="43" cy="34" rx="4" ry="2.8" fill="#F4A8C0" opacity="0.72"/>
  <path d="M8 12 L9 9 M11 14 L14 14 M8 16 L10 18" stroke="#F0C674" stroke-width="1.6" stroke-linecap="round"/>
  <path d="M44 8 L45 5 M47 10 L50 10 M44 12 L46 14" stroke="#F0C674" stroke-width="1.6" stroke-linecap="round"/>
</svg>
