<svg xmlns="http://www.w3.org/2000/svg" width="56" height="56" viewBox="0 0 56 56" class="dumped-mood" data-mood="frustrated" data-anim="jelly">
  <defs>
    <radialGradient id="ef" cx="38%" cy="32%" r="60%">
      <stop offset="0%" stop-color="#F8A8A8"/><stop offset="100%" stop-color="#D83838"/>
    </radialGradient>
  </defs>
  <circle cx="28" cy="28" r="24" fill="url(#ef)"/>
  <ellipse cx="20" cy="18" rx="5" ry="3" fill="white" opacity="0.2" transform="rotate(-30 20 18)"/>
  <path d="M16 20 Q20 25 25 22" stroke="#600" stroke-width="2.3" fill="none" stroke-linecap="round"/>
  <path d="M31 22 Q36 25 40 20" stroke="#600" stroke-width="2.3" fill="none" stroke-linecap="round"/>
  <path d="M16 28 Q21 31 26 28" stroke="#0D0F14" stroke-width="2.8" fill="none" stroke-linecap="round"/>
  <path d="M30 28 Q35 31 40 28" stroke="#0D0F14" stroke-width="2.8" fill="none" stroke-linecap="round"/>
  <path d="M19 39 Q28 33 37 39" stroke="#0D0F14" stroke-width="2.3" fill="none" stroke-linecap="round"/>
  <path d="M10 14 Q12 11 14 14 Q16 11 18 14" stroke="#D83838" stroke-width="1.8" fill="none" stroke-linecap="round" opacity="0.7"/>
  <path d="M38 10 Q40 7 42 10 Q44 7 46 10" stroke="#D83838" stroke-width="1.8" fill="none" stroke-linecap="round" opacity="0.7"/>
  <ellipse cx="15" cy="35" rx="3.5" ry="2.2" fill="#C07070" opacity="0.45"/>
  <ellipse cx="41" cy="35" rx="3.5" ry="2.2" fill="#C07070" opacity="0.45"/>
</svg>
