<svg xmlns="http://www.w3.org/2000/svg" width="88" height="88" viewBox="0 0 88 88" class="dumped-mascot" data-anim="jelly">
  <defs>
    <radialGradient id="gpr" cx="38%" cy="33%" r="62%">
      <stop offset="0%" stop-color="#C4B0F8"/><stop offset="100%" stop-color="#9B7FE8"/>
    </radialGradient>
    <radialGradient id="gprbl" cx="50%" cy="65%" r="45%">
      <stop offset="0%" stop-color="#DDD4FC"/><stop offset="100%" stop-color="#C4B0F8"/>
    </radialGradient>
  </defs>
  <ellipse cx="44" cy="53" rx="33" ry="9" fill="rgba(0,0,0,0.08)"/>
  <ellipse cx="44" cy="46" rx="32" ry="31" fill="url(#gpr)"/>
  <ellipse cx="44" cy="51" rx="18" ry="12" fill="url(#gprbl)" opacity="0.65"/>
  <path d="M36 28 L41 20 L44 25 L47 20 L52 28" stroke="#F0C674" stroke-width="2.4" fill="none" stroke-linecap="round" stroke-linejoin="round"/>
  <circle cx="35.5" cy="39" r="4" fill="#0D0F14"/>
  <circle cx="52.5" cy="39" r="4" fill="#0D0F14"/>
  <circle cx="37" cy="37.5" r="1.4" fill="white" opacity="0.9"/>
  <circle cx="54" cy="37.5" r="1.4" fill="white" opacity="0.9"/>
  <path d="M36 49 Q44 55 52 49" stroke="#0D0F14" stroke-width="2" fill="none" stroke-linecap="round"/>
  <ellipse cx="30" cy="44" rx="3.5" ry="2.2" fill="#F4A8C0" opacity="0.55"/>
  <ellipse cx="58" cy="44" rx="3.5" ry="2.2" fill="#F4A8C0" opacity="0.55"/>
  <ellipse cx="22" cy="48" rx="7.5" ry="5.5" fill="url(#gpr)"/>
  <ellipse cx="66" cy="48" rx="7.5" ry="5.5" fill="url(#gpr)"/>
  <ellipse cx="36" cy="73" rx="5.5" ry="3.5" fill="url(#gpr)"/>
  <ellipse cx="52" cy="73" rx="5.5" ry="3.5" fill="url(#gpr)"/>
</svg>
